<svg id="visual" viewBox="0 0 960 540" width="960" height="540" xmlns="http://www.w3.org/2000/svg" xmlns:xlink="http://www.w3.org/1999/xlink" version="1.1"><g transform="translate(930.0435806777424 3.8700046418060197)"><path d="M248.6 -239.2C311.4 -185.7 344.2 -92.9 341.5 -2.7C338.8 87.4 300.6 174.9 237.7 223.4C174.9 271.9 87.4 281.4 -4 285.5C-95.5 289.5 -190.9 287.9 -239.8 239.4C-288.6 190.9 -290.8 95.5 -266.9 23.9C-243.1 -47.7 -193.1 -95.5 -144.3 -149C-95.5 -202.5 -47.7 -261.7 22.6 -284.3C92.9 -306.9 185.7 -292.7 248.6 -239.2" fill="#D2EBFF"></path></g><g transform="translate(20.717584953168057 495.2581925858864)"><path d="M199.8 -100.4C253.5 -22.4 287.8 81.8 251.3 168.4C214.8 255 107.4 324 -4.8 326.8C-116.9 329.5 -233.8 266 -281.6 172.9C-329.4 79.8 -308 -42.8 -249.6 -123.6C-191.1 -204.3 -95.6 -243.2 -11.2 -236.7C73.1 -230.2 146.1 -178.4 199.8 -100.4" fill="none" stroke="#D2EBFF" stroke-width="6"></path></g></svg>
